<mxfile host="app.diagrams.net" modified="2023-02-21T18:02:14.163Z" agent="5.0 (Windows NT 10.0; Win64; x64) AppleWebKit/537.36 (KHTML, like Gecko) Chrome/110.0.0.0 Safari/537.36" etag="L0_I2ohHV-c0_Cwz8Zh2" version="20.8.21" type="github">
  <diagram name="PÃ¡gina-1" id="qfylnVIxSaI9M48fYcTh">
    <mxGraphModel dx="2374" dy="1423" grid="1" gridSize="10" guides="1" tooltips="1" connect="1" arrows="1" fold="1" page="1" pageScale="1" pageWidth="827" pageHeight="1169" math="0" shadow="0">
      <root>
        <mxCell id="0" />
        <mxCell id="1" parent="0" />
      </root>
    </mxGraphModel>
  </diagram>
</mxfile>
